<?xml version="1.0" standalone="no"?>
<!DOCTYPE svg PUBLIC "-//W3C//DTD SVG 20010904//EN"
 "http://www.w3.org/TR/2001/REC-SVG-20010904/DTD/svg10.dtd">
<svg version="1.0" xmlns="http://www.w3.org/2000/svg"
 width="1063.000000pt" height="1063.000000pt" viewBox="0 0 1063.000000 1063.000000"
 preserveAspectRatio="xMidYMid meet">
<metadata>
Created by potrace 1.14, written by Peter Selinger 2001-2017
</metadata>
<g transform="translate(0.000000,1063.000000) scale(0.100000,-0.100000)"
fill="#000000" stroke="none">
<path d="M2215 6542 c-17 -15 -123 -106 -235 -202 -182 -157 -475 -409 -555
-479 -17 -14 -77 -66 -135 -116 -58 -49 -107 -92 -110 -95 -3 -3 -68 -59 -145
-125 -173 -148 -185 -160 -185 -182 0 -14 221 -280 384 -463 17 -19 58 -66 91
-105 33 -38 62 -72 65 -75 3 -3 32 -36 65 -75 57 -66 76 -88 125 -145 12 -14
50 -58 83 -97 44 -52 68 -73 84 -73 15 0 65 36 141 101 64 56 144 125 176 153
33 28 64 56 70 61 6 6 58 51 116 100 58 50 107 92 110 95 3 3 50 43 105 90 55
47 107 92 115 100 9 8 141 122 293 254 153 131 281 246 286 255 6 10 5 24 -2
36 -8 16 -236 285 -257 305 -3 3 -62 70 -130 150 -130 152 -168 195 -185 214
-5 6 -66 76 -134 156 -181 212 -181 212 -236 162z m95 -152 l29 -36 -24 -85
c-13 -46 -51 -183 -85 -304 -33 -121 -69 -249 -79 -285 -10 -36 -31 -110 -45
-165 -37 -138 -41 -145 -73 -147 -16 0 -32 -2 -38 -3 -19 -3 -110 -15 -155
-20 -25 -3 -61 -8 -80 -10 -19 -3 -55 -7 -80 -10 -25 -3 -56 -8 -70 -10 -14
-2 -52 -7 -85 -10 -33 -4 -71 -8 -85 -10 -14 -2 -47 -7 -75 -10 -49 -5 -134
-16 -165 -20 -8 -2 -46 -6 -85 -9 l-70 -7 -37 44 -37 45 57 48 c31 27 62 53
68 59 6 5 35 30 64 55 29 25 58 50 64 55 20 19 460 399 497 430 40 34 375 322
429 371 118 106 105 103 160 34z m191 -222 c87 -99 126 -145 332 -385 132
-153 161 -192 139 -186 -4 0 -50 4 -102 7 -120 8 -221 15 -284 21 -27 3 -95 8
-150 11 -56 4 -108 8 -116 10 -8 1 -27 3 -43 3 -33 1 -35 -11 28 210 26 90 48
171 50 180 2 9 14 50 25 91 12 41 23 83 25 93 7 33 17 41 30 23 7 -9 37 -44
66 -78z m-58 -633 c31 -3 83 -7 115 -10 31 -3 102 -8 157 -11 55 -4 109 -7
120 -9 11 -1 49 -3 83 -4 37 0 62 -5 60 -11 -1 -5 -26 -29 -54 -52 -78 -66
-257 -220 -275 -237 -21 -22 -124 -109 -157 -135 -15 -11 -31 -26 -37 -32 -5
-6 -73 -64 -150 -130 -77 -65 -142 -121 -145 -124 -3 -3 -72 -64 -155 -135
-82 -70 -160 -138 -173 -149 l-24 -21 7 80 c3 44 8 100 10 125 2 25 6 88 10
140 4 52 8 115 10 140 9 114 18 247 17 263 -1 23 0 23 143 41 95 12 123 19
136 34 8 11 28 69 44 128 15 60 30 113 32 117 5 7 66 5 226 -8z m-676 -312
c-3 -5 -8 -53 -11 -108 -4 -55 -9 -120 -11 -145 -2 -25 -6 -85 -10 -135 -3
-49 -8 -110 -10 -135 -2 -25 -7 -81 -10 -125 -4 -44 -8 -81 -9 -83 -2 -1 -53
55 -113 125 -60 71 -187 218 -281 327 -95 110 -172 203 -172 208 0 4 15 8 33
9 17 0 41 2 52 4 11 2 43 7 70 10 66 7 115 13 200 25 39 5 99 12 135 16 36 3
67 8 69 10 8 7 72 4 68 -3z"/>
<path d="M3509 6199 c-128 -20 -239 -127 -267 -255 -8 -41 -8 -57 2 -117 19
-115 116 -205 256 -237 30 -6 74 -17 98 -22 161 -39 138 -268 -27 -268 -48 0
-129 33 -138 56 -3 8 -11 14 -17 14 -10 0 -160 -103 -186 -127 -8 -8 75 -77
127 -105 72 -40 153 -58 239 -54 152 7 287 110 333 256 38 122 1 272 -88 353
-66 60 -130 85 -262 103 -115 15 -162 100 -92 166 32 30 96 30 148 -1 20 -11
42 -18 48 -14 7 3 47 31 90 62 l77 55 -22 24 c-78 83 -209 129 -319 111z"/>
<path d="M8073 6138 c-78 -123 -123 -195 -123 -199 0 -6 189 -4 193 2 18 20
107 160 106 166 0 10 -114 93 -126 93 -6 0 -28 -28 -50 -62z"/>
<path d="M9556 6190 c-40 -12 -64 -38 -77 -80 -29 -97 88 -178 179 -125 81 48
73 164 -14 200 -40 17 -47 17 -88 5z"/>
<path d="M6436 5989 l1 -197 -50 27 c-44 22 -64 26 -137 26 -71 0 -93 -4 -134
-25 -198 -101 -274 -338 -172 -538 59 -117 182 -194 309 -195 68 0 94 7 180
51 4 2 7 -6 7 -17 0 -20 5 -21 103 -21 l102 0 0 543 0 542 -105 1 -105 0 1
-197z m-83 -364 c42 -17 71 -55 85 -110 41 -156 -110 -279 -245 -200 -60 36
-87 90 -81 167 6 76 43 126 113 149 53 18 73 17 128 -6z"/>
<path d="M6878 6180 c-1 -3 -2 -247 -3 -542 l-1 -538 113 0 113 0 2 238 3 237
185 1 c102 1 192 2 202 3 14 1 16 15 16 101 l1 100 -205 0 -204 0 0 100 0 100
175 0 175 0 0 103 0 102 -285 0 c-157 0 -286 -2 -287 -5z"/>
<path d="M9895 6180 c-2 -3 -4 -248 -4 -543 l0 -537 104 0 105 0 -2 542 -3
543 -98 1 c-54 0 -100 -2 -102 -6z"/>
<path d="M4340 5830 c-188 -69 -293 -273 -241 -468 17 -61 83 -155 139 -196
162 -118 403 -103 536 33 l36 36 -81 63 -80 63 -30 -25 c-34 -29 -87 -46 -141
-46 -50 0 -53 11 -10 40 20 14 39 27 42 30 3 3 74 55 158 114 85 60 156 114
158 121 8 19 -37 91 -86 141 -24 25 -73 59 -108 76 -84 42 -206 49 -292 18z
m203 -205 c10 -4 17 -11 15 -16 -2 -4 -59 -48 -128 -97 -133 -96 -141 -97
-133 -24 7 67 63 135 121 148 15 3 32 7 37 8 11 3 61 -8 88 -19z"/>
<path d="M5298 5836 c-21 -7 -49 -21 -62 -30 -24 -15 -25 -15 -28 7 -3 21 -7
22 -105 23 l-103 0 0 -368 0 -368 104 0 104 0 1 203 c0 124 4 215 11 233 48
125 233 145 292 31 20 -39 21 -58 23 -252 l1 -210 102 -3 c100 -3 102 -2 103
20 3 105 -1 378 -6 421 -15 114 -93 225 -197 278 -54 28 -184 36 -240 15z"/>
<path d="M7887 5830 c-64 -25 -123 -70 -167 -129 -55 -73 -75 -138 -74 -243 1
-80 4 -94 37 -161 67 -135 172 -206 317 -212 42 -2 129 22 151 41 21 19 29 18
29 -6 0 -19 7 -20 105 -20 l105 0 0 368 0 369 -102 -1 c-100 -1 -103 -2 -102
-23 0 -13 0 -23 0 -23 -1 0 -28 14 -61 31 -51 25 -70 30 -126 28 -37 -1 -87
-10 -112 -19z m208 -202 c88 -45 120 -154 73 -248 -59 -117 -232 -115 -295 3
-24 45 -22 133 4 175 46 75 145 107 218 70z"/>
<path d="M8859 5846 c-4 -4 -16 -9 -28 -11 -43 -8 -115 -51 -158 -94 -119
-118 -147 -298 -71 -449 94 -186 322 -260 511 -165 112 56 190 162 211 286 l5
27 -110 0 c-99 0 -109 -2 -109 -18 0 -34 -56 -98 -99 -116 -147 -58 -276 66
-231 223 19 68 84 113 161 113 50 -1 80 -12 115 -43 20 -19 21 -18 95 37 41
31 78 60 82 64 15 13 -66 82 -133 113 -52 25 -81 32 -150 35 -47 2 -88 1 -91
-2z"/>
<path d="M9490 5468 l0 -368 104 0 104 0 -2 368 -1 367 -102 1 -103 1 0 -369z"/>
<path d="M793 5053 c-37 -32 -73 -62 -79 -68 -28 -26 -140 -122 -161 -138 -25
-20 -29 -47 -13 -78 13 -24 50 -25 76 -1 10 9 82 71 159 137 77 66 143 124
147 130 21 28 -6 75 -42 75 -10 0 -49 -26 -87 -57z"/>
<path d="M1033 4860 c-58 -42 -516 -439 -530 -458 -19 -27 5 -66 42 -70 23 -1
40 8 76 40 26 24 73 66 105 94 248 213 381 330 392 345 8 12 9 25 3 42 -14 37
-45 39 -88 7z"/>
<path d="M1234 4638 c-25 -19 -133 -110 -170 -143 -6 -5 -29 -26 -50 -45 -22
-19 -70 -61 -107 -94 -55 -47 -66 -62 -61 -80 16 -55 54 -58 111 -9 17 16 106
93 197 172 172 149 187 169 150 205 -21 21 -36 20 -70 -6z"/>
<path d="M1424 4408 c-16 -13 -36 -30 -45 -38 -9 -8 -42 -37 -74 -65 -126
-108 -138 -129 -90 -161 24 -16 27 -15 63 9 20 14 48 36 62 49 14 12 54 48 90
78 83 70 90 80 83 110 -11 46 -45 52 -89 18z"/>
</g>
</svg>
